<svg width="226" height="61" viewBox="0 0 226 61" fill="none" xmlns="http://www.w3.org/2000/svg">
<g filter="url(#filter0_d_4_15)">
<path d="M24.9523 52H5.49625V50.016L11.5123 45.28V6.496L4.85625 4.256L6.13625 1.696H25.5923V3.68L19.5123 8.416V47.136L26.2323 49.44L24.9523 52ZM78.1743 16.544L76.2543 17.184L67.7423 4.576H59.9343V47.136L66.6543 49.44L65.3743 52H45.9183V50.016L51.9343 45.28V4.576H44.3183L35.8063 17.184L33.8863 16.544V0.543999L37.3423 1.696H74.7183L78.1743 0.543999V16.544Z" fill="#FF0000"/>
<path d="M112.288 30.368C115.403 30.752 117.707 31.7547 119.2 33.376C120.736 34.9547 121.504 36.9173 121.504 39.264C121.504 41.6107 120.63 43.8293 118.88 45.92C117.174 48.0107 114.976 49.632 112.288 50.784C111.094 51.2533 109.515 51.5947 107.552 51.808C105.632 52.0213 103.648 52.128 101.6 52.128C98.1869 52.128 94.6883 51.808 91.1042 51.168C90.4643 51.04 89.7816 50.72 89.0563 50.208C88.3736 49.696 88.0323 48.9493 88.0323 47.968C87.9896 44.0427 87.8403 38.5813 87.5843 31.584L87.5203 28.064C87.3496 22.6027 87.2643 18.3147 87.2643 15.2C87.2643 14.6453 87.5843 14.0053 88.2243 13.28C88.9069 12.512 89.7176 12.0853 90.6562 12C91.2109 12 91.7443 11.9787 92.2563 11.936C97.0776 11.4667 100.299 11.232 101.92 11.232C105.12 11.232 107.936 11.552 110.368 12.192C112.843 12.7893 114.891 13.8987 116.512 15.52C117.11 16.2027 117.6 17.0773 117.984 18.144C118.368 19.168 118.56 20.1707 118.56 21.152C118.603 23.2427 118.048 25.1627 116.896 26.912C115.787 28.6613 114.251 29.8133 112.288 30.368ZM102.304 16.672C100.854 16.672 99.3389 16.7573 97.7603 16.928C96.2243 17.0987 94.9229 17.312 93.8563 17.568L94.2403 29.664L96.5443 29.6C100.256 29.216 102.987 28.896 104.736 28.64C105.846 28.384 106.934 27.8933 108 27.168C109.067 26.4 109.942 25.6107 110.624 24.8C111.35 23.9467 111.712 23.3067 111.712 22.88C111.712 22.24 111.584 21.6 111.328 20.96C111.072 20.2773 110.795 19.7867 110.496 19.488C109.344 18.3787 108.171 17.632 106.976 17.248C105.782 16.864 104.224 16.672 102.304 16.672ZM94.4323 46.496C96.6083 46.7947 98.6776 46.944 100.64 46.944C104.95 46.944 108.342 46.3893 110.816 45.28C113.334 44.128 114.592 41.952 114.592 38.752C114.592 37.472 113.632 36.4053 111.712 35.552C109.792 34.6987 107.723 34.272 105.504 34.272C104.011 34.272 102.112 34.4427 99.8083 34.784C97.9736 35.04 96.1816 35.2107 94.4323 35.296C94.5176 37.856 94.5603 39.4773 94.5603 40.16C94.5603 41.4827 94.5389 42.4853 94.4963 43.168L94.4323 46.496ZM152.767 31.456C153.109 32.0533 153.386 32.928 153.599 34.08C153.813 35.1893 153.919 36.192 153.919 37.088C153.919 38.752 153.557 41.12 152.831 44.192C149.887 49.568 145.535 52.256 139.775 52.256C137.642 52.256 135.466 51.552 133.247 50.144C131.029 48.736 129.493 47.1147 128.639 45.28C127.487 41.6107 126.911 39.2853 126.911 38.304C126.911 36.5973 127.274 34.784 127.999 32.864C128.767 30.944 129.727 29.28 130.879 27.872C131.605 26.8907 132.906 26.0587 134.783 25.376C136.661 24.6507 138.367 24.288 139.903 24.288C142.89 24.288 145.429 24.864 147.519 26.016C149.61 27.1253 151.359 28.9387 152.767 31.456ZM147.199 41.76C147.413 41.2053 147.519 39.776 147.519 37.472C147.519 36.2347 147.285 35.0187 146.815 33.824C146.389 32.6293 145.749 31.6053 144.895 30.752C144.81 30.6667 144.575 30.5387 144.191 30.368C143.807 30.1547 143.274 29.9627 142.591 29.792C141.951 29.5787 141.205 29.472 140.351 29.472C137.962 29.472 136.213 30.432 135.103 32.352C133.994 34.272 133.439 36.448 133.439 38.88C133.439 39.3067 133.546 40.1173 133.759 41.312C134.015 42.5067 134.229 43.2533 134.399 43.552C134.527 43.8507 134.847 44.2773 135.359 44.832C135.914 45.344 136.575 45.8133 137.343 46.24C138.154 46.624 138.986 46.816 139.839 46.816C141.759 46.816 143.295 46.368 144.447 45.472C145.599 44.5333 146.517 43.296 147.199 41.76ZM185.389 31.456C185.731 32.0533 186.008 32.928 186.221 34.08C186.435 35.1893 186.541 36.192 186.541 37.088C186.541 38.24 186.413 39.52 186.157 40.928C185.901 42.336 185.667 43.424 185.453 44.192C182.509 49.568 178.157 52.256 172.397 52.256C170.264 52.256 168.088 51.552 165.869 50.144C163.651 48.736 162.115 47.1147 161.261 45.28C160.109 41.6533 159.533 39.328 159.533 38.304C159.533 36.5973 159.896 34.784 160.621 32.864C161.389 30.944 162.349 29.28 163.501 27.872C164.269 26.8907 165.592 26.0587 167.469 25.376C169.347 24.6507 171.053 24.288 172.589 24.288C175.576 24.288 178.093 24.864 180.141 26.016C182.232 27.1253 183.981 28.9387 185.389 31.456ZM179.821 41.76C180.035 41.3333 180.141 39.904 180.141 37.472C180.141 36.2347 179.907 35.0187 179.437 33.824C179.011 32.6293 178.371 31.6053 177.517 30.752C177.432 30.6667 177.197 30.5387 176.813 30.368C176.429 30.1547 175.896 29.9627 175.213 29.792C174.573 29.5787 173.827 29.472 172.973 29.472C170.584 29.472 168.835 30.432 167.725 32.352C166.616 34.272 166.061 36.448 166.061 38.88C166.061 39.264 166.189 40.0533 166.445 41.248C166.701 42.4427 166.893 43.2107 167.021 43.552C167.363 44.1493 168.045 44.8533 169.069 45.664C170.136 46.432 171.288 46.816 172.525 46.816C174.445 46.816 175.96 46.368 177.069 45.472C178.221 44.5333 179.139 43.296 179.821 41.76ZM197.601 52.256C196.748 52.256 196.023 52.1067 195.425 51.808C194.828 51.5093 194.465 51.1893 194.337 50.848C193.868 49.1413 193.633 46.9013 193.633 44.128C193.633 39.008 193.719 34.848 193.889 31.648C194.06 27.8507 194.145 24.2027 194.145 20.704C194.145 19.68 194.017 18.1867 193.761 16.224C193.719 15.8827 193.655 15.264 193.569 14.368C193.484 13.472 193.441 12.64 193.441 11.872C193.441 10.9333 193.761 10.1867 194.401 9.632C195.084 9.07733 195.959 8.8 197.025 8.8C197.879 8.8 198.561 9.07733 199.073 9.632C199.628 10.144 199.905 10.848 199.905 11.744C199.905 13.1093 199.948 15.0293 200.033 17.504C200.119 19.808 200.161 21.536 200.161 22.688C200.161 23.968 200.119 25.6747 200.033 27.808C199.948 29.088 199.905 30.0267 199.905 30.624C199.905 32.5013 199.927 34.0587 199.969 35.296C201.548 33.7173 203.617 31.8613 206.177 29.728C208.737 27.5947 210.721 26.1013 212.129 25.248C213.623 24.352 214.604 23.904 215.073 23.904C215.969 23.904 216.737 24.096 217.377 24.48C218.017 24.864 218.337 25.4187 218.337 26.144C218.337 26.8693 218.231 27.4453 218.017 27.872C217.804 28.2987 217.42 28.7253 216.865 29.152L208.609 35.168C209.548 35.6373 210.337 36.2347 210.977 36.96C211.66 37.6853 212.343 38.5813 213.025 39.648C214.476 42.0373 215.628 43.7867 216.481 44.896C217.377 46.0053 218.188 46.56 218.913 46.56L220.513 46.496C220.812 46.496 221.068 46.6667 221.281 47.008C221.537 47.3493 221.665 47.84 221.665 48.48C221.665 49.4613 221.175 50.2507 220.193 50.848C219.255 51.4453 218.188 51.744 216.993 51.744C215.329 51.744 213.857 51.104 212.577 49.824C211.297 48.5013 210.081 46.7307 208.929 44.512C207.265 41.3547 205.623 39.4773 204.001 38.88L199.905 42.208L200.161 49.184C200.161 50.2933 199.863 51.0827 199.265 51.552C198.711 52.0213 198.156 52.256 197.601 52.256Z" fill="white"/>
</g>
<defs>
<filter id="filter0_d_4_15" x="0.856247" y="0.543999" width="224.809" height="59.712" filterUnits="userSpaceOnUse" color-interpolation-filters="sRGB">
<feFlood flood-opacity="0" result="BackgroundImageFix"/>
<feColorMatrix in="SourceAlpha" type="matrix" values="0 0 0 0 0 0 0 0 0 0 0 0 0 0 0 0 0 0 127 0" result="hardAlpha"/>
<feOffset dy="4"/>
<feGaussianBlur stdDeviation="2"/>
<feComposite in2="hardAlpha" operator="out"/>
<feColorMatrix type="matrix" values="0 0 0 0 0 0 0 0 0 0 0 0 0 0 0 0 0 0 0.5 0"/>
<feBlend mode="normal" in2="BackgroundImageFix" result="effect1_dropShadow_4_15"/>
<feBlend mode="normal" in="SourceGraphic" in2="effect1_dropShadow_4_15" result="shape"/>
</filter>
</defs>
</svg>
