<svg width="40" height="37" viewBox="0 0 40 37" fill="none" xmlns="http://www.w3.org/2000/svg">
<path d="M34.4234 1.06766C34.0702 1.14239 33.3025 1.35978 32.725 1.55C31.5837 1.92364 30.293 2.42636 23.0443 5.30679C21.2916 6.00652 19.1313 6.8625 18.2549 7.20896C17.3786 7.55543 15.4696 8.3163 14.009 8.89375C12.5552 9.47119 10.1639 10.4223 8.70331 10.9997C5.7889 12.1546 4.25358 12.7932 3.32966 13.228C2.03211 13.8394 1.1082 14.6139 0.693795 15.4291C0.503577 15.8095 0.48999 15.8842 0.48999 16.6179C0.48999 17.3652 0.503577 17.4196 0.707382 17.8476C0.951947 18.3435 1.56336 18.9957 2.14081 19.3829C2.34461 19.5188 2.86771 19.8041 3.30249 20.0147C4.04298 20.3815 4.56608 20.6057 7.62314 21.8625C8.2957 22.141 9.0226 22.4807 9.23999 22.6166C9.96689 23.0853 10.1367 23.4997 11.0538 27.012C11.9506 30.4427 12.0729 30.891 12.2495 31.3394C12.7318 32.6302 13.5674 33.2755 14.6068 33.1668C15.687 33.0582 16.0946 32.6302 18.8256 28.8326C19.4846 27.9087 20.0552 27.1342 20.0824 27.1207C20.1163 27.1003 20.2115 27.1682 20.2998 27.2701C23.6014 31.0609 25.9723 33.7171 26.7808 34.5391C28.2006 35.9997 29.009 36.4345 30.1639 36.3734C31.0539 36.3258 31.6721 35.9793 32.2495 35.1981C32.9492 34.2538 33.2346 33.2823 34.8582 26.4685C35.2386 24.8856 35.4289 24.0908 36.2848 20.5242C36.5294 19.512 36.9846 17.603 37.3039 16.2783C37.6231 14.9535 37.99 13.425 38.1191 12.8815C39.3351 7.82717 39.5865 6.48886 39.5865 5.00788C39.5865 3.63559 39.24 2.67771 38.4655 1.91005C38.0104 1.45489 37.365 1.10163 36.8011 0.992931C36.2305 0.884236 35.1367 0.918203 34.4234 1.06766ZM36.5226 3.81902C36.8215 4.07038 36.8894 4.41005 36.8487 5.37473C36.8011 6.37337 36.4683 8.08533 35.721 11.1832C35.5715 11.8014 35.1911 13.391 34.8718 14.7158C34.5525 16.0405 34.1992 17.5215 34.0837 18.0106C33.2481 21.5024 33.0308 22.3924 32.7183 23.6832C32.528 24.4848 32.2699 25.5717 32.1408 26.0948C30.687 32.2361 30.2726 33.6696 29.9601 33.6696C29.899 33.6696 29.7563 33.5948 29.634 33.5065C29.3147 33.262 27.8881 31.7878 27.0321 30.8163C26.6245 30.3476 25.1367 28.6492 23.7237 27.0459C22.3106 25.4359 20.9384 23.8937 20.6734 23.6152C19.8378 22.7185 19.8854 22.8543 20.2658 22.4467C20.4424 22.2497 21.2984 21.353 22.1612 20.4563C26.5702 15.8707 27.0321 15.3747 27.1612 15.103C27.562 14.2062 26.9234 13.2212 25.9316 13.2212C25.4492 13.2212 25.1367 13.4182 24.437 14.1451C17.528 21.3394 17.6435 21.2171 17.365 21.7334C17.1476 22.1274 17.134 22.1954 17.134 22.8C17.134 23.3774 17.1544 23.4861 17.3242 23.819C17.4329 24.0228 17.6707 24.3693 17.8609 24.5867C18.0443 24.8041 18.187 25.0147 18.1666 25.0622C18.0783 25.266 14.7427 29.8177 14.6884 29.8109C14.6068 29.8041 14.5321 29.5527 13.8392 26.8761C12.8609 23.0989 12.562 22.2361 11.9302 21.4345C11.1558 20.463 10.5443 20.0962 7.65711 18.9277C4.37586 17.5962 3.17341 16.978 3.17341 16.6451C3.17341 16.2307 4.59325 15.5582 9.72912 13.5269C10.884 13.0649 13.0443 12.209 14.5185 11.6247C15.9927 11.0405 18.0715 10.2117 19.1381 9.79049C20.2047 9.36929 22.2087 8.57445 23.5878 8.02418C29.6 5.63288 30.7957 5.16413 32.0457 4.69538C34.3215 3.85299 35.028 3.64918 35.7957 3.64918C36.2577 3.64239 36.3392 3.66277 36.5226 3.81902Z" fill="black"/>
</svg>
