<svg width="50" height="31" viewBox="0 0 50 31" fill="none" xmlns="http://www.w3.org/2000/svg">
<path d="M19.1489 1.06015C18.617 1.16654 17.8936 1.40058 17.5532 1.57079C16.617 2.06015 15.0851 3.46441 15.2766 3.63462C15.3617 3.71973 15.9787 3.95377 16.617 4.16654C17.2553 4.3793 17.9574 4.67717 18.1489 4.84739C18.7447 5.3793 19.0213 7.2942 18.8936 10.3155C18.8085 13.1453 18.5106 14.4857 18 14.4857C17.0851 14.4857 15.1489 10.5495 12.7872 3.88994L11.8511 1.2942H5.91489H0L0.148936 1.76228C0.212766 2.03888 0.957447 3.93249 1.76596 5.97505C8.76596 23.5708 15.2766 29.9538 26.8298 30.5921L29.3404 30.7197L29.4043 28.4857C29.4894 26.6346 29.5745 26.1027 30.0426 25.2091C30.8511 23.6133 31.2766 23.6772 32.9787 25.5921C36.4255 29.4219 37.234 30.0389 39.4043 30.4431C40.4894 30.6559 49.6383 30.741 49.8298 30.5495C49.8936 30.507 49.8723 29.7836 49.7872 28.975C49.5106 26.507 48.2128 24.4219 44.4468 20.5282C42.1489 18.1453 41.9149 17.8261 42.0213 17.2942C42.1915 16.6559 42.7447 15.8048 46.0426 11.2091C48.766 7.44313 49.8298 5.3793 49.8511 3.86866C49.8511 1.76228 50.4043 1.93249 43.4681 1.93249H37.3617L36.766 3.61334C35.5319 7.12398 32.8936 11.8899 31.234 13.5708C30.7447 14.0814 30.2979 14.4857 30.2128 14.4857C29.766 14.4857 29.5745 12.0176 29.7021 7.99632C29.8085 4.80483 29.766 3.46441 29.5532 2.67717L29.2766 1.61334L28 1.33675C26.4043 1.0176 20.4681 0.826111 19.1489 1.06015ZM25.7234 3.99632L26.8511 4.12398L26.7872 8.82611C26.7234 12.8261 26.7872 13.6985 27.0851 14.7197C27.7234 16.7623 29.4468 17.8261 31.1702 17.2516C33.1702 16.5921 36.2979 12.1878 38.766 6.57079L39.4894 4.91122H43.0638H46.6596L46.0638 5.91122C45.2766 7.27292 44.5532 8.35802 42.1915 11.5921C41.0851 13.0814 39.9574 14.7836 39.6596 15.358C39 16.5921 38.9574 18.1027 39.5106 19.2729C39.7234 19.7197 41.1489 21.4006 42.6596 22.9963C44.1915 24.5921 45.6809 26.3155 45.9574 26.8048L46.4468 27.7197L42.8723 27.6346C39.3404 27.5708 39.2553 27.5708 38.4043 26.975C37.9149 26.6559 37.2128 25.9963 36.8298 25.5282C35.383 23.7197 33.5319 21.8899 32.766 21.4857C30.6809 20.4219 28.7234 21.3367 27.4043 23.9538C27 24.7836 26.4043 26.9325 26.4043 27.5921C26.4043 27.7197 24.0851 27.4006 22.7872 27.1027C16.7021 25.6772 12.2979 21.4219 8 12.7836C6.87234 10.5282 4.2766 4.6559 4.2766 4.35802C4.2766 4.2942 5.53191 4.2942 7.06383 4.31547L9.85106 4.3793L10.8936 7.25164C12.9362 12.8899 15.1064 16.5495 16.8298 17.2516C17.1915 17.4006 17.8936 17.4644 18.4468 17.4006C20.9362 17.124 22.1489 13.9325 21.8723 8.33675C21.766 6.08143 21.617 5.2942 21.1915 4.20909C21.0638 3.88994 21.2128 3.84739 22.8085 3.84739C23.7872 3.84739 25.1064 3.91122 25.7234 3.99632Z" fill="black"/>
</svg>
