<svg width="38" height="38" viewBox="0 0 38 38" fill="none" xmlns="http://www.w3.org/2000/svg">
<path d="M14.445 0.520358C3.2162 3.4229 -2.69482 15.8805 2.15688 26.389L2.8984 27.9992L1.83908 31.8551C1.26705 33.9738 0.673825 36.0712 0.546707 36.5161C0.419588 36.9399 0.356029 37.3424 0.419588 37.406C0.461961 37.4695 2.68654 36.9399 5.31366 36.2619L10.123 34.9907L11.5001 35.6263C15.9492 37.639 21.6272 37.7238 26.2247 35.817C36.0764 31.7492 40.5255 20.0543 35.8645 10.4568C33.4492 5.49917 28.767 1.7068 23.4704 0.435612C20.8645 -0.178795 17.0509 -0.136422 14.445 0.520358ZM22.8348 3.52883C27.1145 4.50341 31.2035 7.85087 33.1315 12.0246C35.0594 16.156 35.0382 21.389 33.0891 25.2873C30.9916 29.4399 27.7925 32.1093 23.2586 33.5076C21.9874 33.9102 21.1611 33.9949 19.2331 34.0161C16.3094 34.0161 14.445 33.5924 12.1569 32.4271L10.5679 31.6221L7.79247 32.3636C6.24586 32.7661 4.95349 33.0627 4.91111 32.9992C4.84755 32.9568 5.14416 31.6856 5.56789 30.2026L6.30942 27.4695L5.58908 26.1983C2.49586 20.5627 3.11027 13.5924 7.13569 8.7407C10.9916 4.12205 16.8179 2.1729 22.8348 3.52883Z" fill="black"/>
<path d="M11.1611 10.6473C10.8009 11.0286 10.3136 11.7278 10.1018 12.1939C9.59329 13.2744 9.5721 15.3719 10.0594 16.5795C11.034 19.1219 14.5721 23.2532 17.284 25.0329C19.1696 26.2829 21.9026 27.3634 23.5128 27.5117C26.2246 27.7447 28.5552 25.9651 28.5552 23.6769C28.5552 22.9778 28.4916 22.9354 26.5848 22.0032C23.6823 20.5837 23.873 20.5837 22.8136 21.9185C22.3052 22.5541 21.7331 23.1473 21.5636 23.2108C21.3941 23.2744 20.5467 22.9778 19.678 22.5329C17.9196 21.643 15.8221 19.7151 14.9111 18.1685L14.3179 17.1727L15.0594 16.2829C15.4407 15.7744 15.8433 15.2024 15.9069 15.0117C16.034 14.6515 14.5721 10.8168 14.106 10.2236C13.9789 10.0964 13.428 9.96931 12.8772 9.96931C12.0085 9.96931 11.7543 10.0752 11.1611 10.6473Z" fill="black"/>
</svg>
